<svg xmlns="http://www.w3.org/2000/svg" viewBox="0 0 512 512" role="img" aria-label="知时客 Logo mark">
  <defs>
    <linearGradient id="mark-bg" x1="96" y1="64" x2="432" y2="448" gradientUnits="userSpaceOnUse">
      <stop offset="0" stop-color="#93c5fd"/>
      <stop offset="0.56" stop-color="#3b82f6"/>
      <stop offset="1" stop-color="#1d4ed8"/>
    </linearGradient>
    <linearGradient id="mark-warm" x1="152" y1="104" x2="376" y2="400" gradientUnits="userSpaceOnUse">
      <stop offset="0" stop-color="#e0f2fe"/>
      <stop offset="1" stop-color="#06b6d4"/>
    </linearGradient>
    <filter id="soft-shadow" x="-20%" y="-20%" width="140%" height="140%" color-interpolation-filters="sRGB">
      <feDropShadow dx="0" dy="18" stdDeviation="18" flood-color="#1d4ed8" flood-opacity="0.22"/>
    </filter>
  </defs>

  <rect width="512" height="512" rx="96" fill="#eff6ff"/>
  <rect x="38" y="38" width="436" height="436" rx="78" fill="url(#mark-bg)" filter="url(#soft-shadow)"/>
  <path d="M136 323c56 34 112 34 168 0 0-56 0-112 0-168-56 34-112 34-168 0v168Z" fill="#f4fbfb" opacity="0.96"/>
  <path d="M208 176c33 11 65 7 96-12v170c-31 19-63 23-96 12V176Z" fill="#d9f6f3"/>
  <path d="M304 155c24-15 48-21 72-18v169c-24-3-48 3-72 18V155Z" fill="#f4fbfb" opacity="0.9"/>
  <path d="M136 155c24 15 48 21 72 18v170c-24 3-48-3-72-18V155Z" fill="#f4fbfb" opacity="0.86"/>
  <path d="M338 116a104 104 0 0 1 39 187" fill="none" stroke="#0f172a" stroke-width="28" stroke-linecap="round" opacity="0.24"/>
  <circle cx="338" cy="116" r="34" fill="url(#mark-warm)"/>
  <path d="M338 95v23l18 12" fill="none" stroke="#0f172a" stroke-width="10" stroke-linecap="round" stroke-linejoin="round"/>
  <path d="M163 247h72M163 288h54M328 225h42M328 266h42" stroke="#1d4ed8" stroke-width="16" stroke-linecap="round"/>
</svg>
